<svg width="1120" height="50" viewBox="0 0 1120 50" fill="none" xmlns="http://www.w3.org/2000/svg">
<path opacity="0.5" d="M40.0652 6.25671L30.2601 40.9917C30.2102 41.1494 30.0108 41.1967 29.8945 41.0863L23.3301 34.8583L28.2492 17.4514C28.2991 17.2937 28.1495 17.1518 27.9833 17.1991L9.63617 21.8662L3.10498 15.6697C2.98865 15.5593 3.03851 15.3701 3.20469 15.3228L39.7993 6.00444C39.9655 5.97291 40.115 6.11481 40.0652 6.25671Z" fill="#00B37E"/>
<path opacity="0.5" d="M23.3297 34.858L20.8037 43.8452C20.7538 44.0029 20.5544 44.0502 20.4381 43.9398L0.0634003 24.6251C-0.0529313 24.5147 -0.00307518 24.3255 0.163113 24.2782L9.63583 21.8658L23.3297 34.858Z" fill="#00B37E"/>
<path d="M28.2484 17.4511L23.3292 34.858L9.63533 21.8659L27.9825 17.1988C28.1487 17.1515 28.2982 17.2934 28.2484 17.4511Z" fill="#00B37E"/>
<path d="M63.2741 33.5H59.3139L59.3389 30.5767H63.2741C64.2569 30.5767 65.0856 30.356 65.7602 29.9146C66.4348 29.4648 66.9428 28.811 67.2843 27.9532C67.6341 27.0953 67.809 26.0584 67.809 24.8425V23.9555C67.809 23.0227 67.7091 22.2023 67.5092 21.4944C67.3176 20.7865 67.0303 20.191 66.6472 19.7079C66.2641 19.2249 65.7935 18.8626 65.2355 18.621C64.6775 18.3712 64.0362 18.2462 63.3116 18.2462H59.2389V15.3104H63.3116C64.5276 15.3104 65.6394 15.5186 66.6472 15.9351C67.6633 16.3432 68.5419 16.9303 69.2832 17.6966C70.0244 18.4628 70.5949 19.3789 70.9947 20.445C71.4028 21.5027 71.6068 22.6812 71.6068 23.9805V24.8425C71.6068 26.1334 71.4028 27.3119 70.9947 28.3779C70.5949 29.444 70.0244 30.3601 69.2832 31.1264C68.5503 31.8843 67.6716 32.4714 66.6472 32.8879C65.6311 33.296 64.5067 33.5 63.2741 33.5ZM61.4377 15.3104V33.5H57.6898V15.3104H61.4377ZM81.6136 15.3104V33.5H77.8782V15.3104H81.6136ZM87.2104 15.3104V18.2462H72.3689V15.3104H87.2104ZM96.7549 15.3104H99.9281L104.6 28.6653L109.273 15.3104H112.446L105.875 33.5H103.326L96.7549 15.3104ZM95.0434 15.3104H98.2041L98.7788 28.328V33.5H95.0434V15.3104ZM110.997 15.3104H114.17V33.5H110.422V28.328L110.997 15.3104ZM116.656 26.8788V26.6164C116.656 25.6253 116.798 24.7134 117.081 23.8805C117.364 23.0393 117.776 22.3106 118.318 21.6943C118.859 21.078 119.525 20.5991 120.316 20.2576C121.108 19.9078 122.015 19.7329 123.04 19.7329C124.064 19.7329 124.976 19.9078 125.776 20.2576C126.575 20.5991 127.246 21.078 127.787 21.6943C128.337 22.3106 128.753 23.0393 129.036 23.8805C129.32 24.7134 129.461 25.6253 129.461 26.6164V26.8788C129.461 27.8616 129.32 28.7735 129.036 29.6147C128.753 30.4476 128.337 31.1763 127.787 31.801C127.246 32.4173 126.579 32.8962 125.788 33.2377C124.997 33.5791 124.089 33.7499 123.065 33.7499C122.04 33.7499 121.128 33.5791 120.329 33.2377C119.538 32.8962 118.867 32.4173 118.318 31.801C117.776 31.1763 117.364 30.4476 117.081 29.6147C116.798 28.7735 116.656 27.8616 116.656 26.8788ZM120.254 26.6164V26.8788C120.254 27.4451 120.304 27.974 120.404 28.4654C120.504 28.9568 120.662 29.3899 120.879 29.7646C121.103 30.1311 121.395 30.4184 121.753 30.6266C122.111 30.8349 122.548 30.939 123.065 30.939C123.565 30.939 123.993 30.8349 124.352 30.6266C124.71 30.4184 124.997 30.1311 125.214 29.7646C125.43 29.3899 125.588 28.9568 125.688 28.4654C125.797 27.974 125.851 27.4451 125.851 26.8788V26.6164C125.851 26.0668 125.797 25.5504 125.688 25.0673C125.588 24.576 125.426 24.1429 125.201 23.7681C124.985 23.385 124.697 23.0851 124.339 22.8686C123.981 22.6521 123.548 22.5438 123.04 22.5438C122.532 22.5438 122.099 22.6521 121.741 22.8686C121.391 23.0851 121.103 23.385 120.879 23.7681C120.662 24.1429 120.504 24.576 120.404 25.0673C120.304 25.5504 120.254 26.0668 120.254 26.6164ZM135.195 22.8686V33.5H131.597V19.9828H134.97L135.195 22.8686ZM134.671 26.2666H133.696C133.696 25.2672 133.825 24.3677 134.084 23.5682C134.342 22.7603 134.704 22.0732 135.17 21.5069C135.637 20.9322 136.191 20.495 136.832 20.1951C137.482 19.887 138.206 19.7329 139.006 19.7329C139.639 19.7329 140.217 19.8245 140.742 20.0077C141.267 20.191 141.717 20.4825 142.091 20.8822C142.475 21.282 142.766 21.8109 142.966 22.4688C143.174 23.1268 143.278 23.9305 143.278 24.8799V33.5H139.655V24.8675C139.655 24.2678 139.572 23.8014 139.405 23.4683C139.239 23.1351 138.993 22.9019 138.668 22.7687C138.352 22.6271 137.96 22.5563 137.494 22.5563C137.011 22.5563 136.59 22.6521 136.232 22.8436C135.882 23.0352 135.591 23.3017 135.358 23.6432C135.133 23.9763 134.962 24.3677 134.846 24.8175C134.729 25.2672 134.671 25.7503 134.671 26.2666ZM152.236 33.7499C151.186 33.7499 150.245 33.5833 149.412 33.2501C148.579 32.9087 147.871 32.4381 147.288 31.8385C146.714 31.2388 146.272 30.5434 145.964 29.7521C145.656 28.9526 145.502 28.1031 145.502 27.2036V26.7039C145.502 25.6795 145.648 24.7425 145.939 23.893C146.231 23.0435 146.647 22.3064 147.188 21.6818C147.738 21.0571 148.404 20.5782 149.187 20.2451C149.97 19.9036 150.853 19.7329 151.836 19.7329C152.794 19.7329 153.643 19.8911 154.384 20.2076C155.126 20.5241 155.746 20.9739 156.246 21.5569C156.754 22.1398 157.137 22.8394 157.395 23.6556C157.653 24.4635 157.782 25.363 157.782 26.3541V27.8532H147.039V25.4546H154.247V25.1798C154.247 24.6801 154.155 24.2345 153.972 23.843C153.797 23.4433 153.531 23.1268 153.173 22.8936C152.814 22.6604 152.356 22.5438 151.798 22.5438C151.324 22.5438 150.916 22.6479 150.574 22.8561C150.233 23.0643 149.954 23.3558 149.737 23.7306C149.529 24.1054 149.371 24.5468 149.262 25.0548C149.162 25.5546 149.112 26.1042 149.112 26.7039V27.2036C149.112 27.745 149.187 28.2447 149.337 28.7028C149.495 29.1608 149.716 29.5564 149.999 29.8896C150.291 30.2227 150.641 30.4809 151.049 30.6641C151.465 30.8474 151.936 30.939 152.46 30.939C153.11 30.939 153.714 30.814 154.272 30.5642C154.838 30.306 155.325 29.9187 155.734 29.4024L157.483 31.3013C157.199 31.7094 156.812 32.1008 156.321 32.4756C155.838 32.8504 155.255 33.1585 154.572 33.4001C153.889 33.6333 153.11 33.7499 152.236 33.7499ZM163.667 31.9759L167.252 19.9828H171.112L165.678 35.5363C165.561 35.8778 165.403 36.2443 165.203 36.6357C165.012 37.0271 164.749 37.3978 164.416 37.7476C164.091 38.1057 163.679 38.3972 163.179 38.6221C162.688 38.8469 162.084 38.9594 161.368 38.9594C161.026 38.9594 160.747 38.9385 160.531 38.8969C160.314 38.8553 160.056 38.797 159.756 38.722V36.086C159.848 36.086 159.944 36.086 160.044 36.086C160.144 36.0943 160.239 36.0985 160.331 36.0985C160.806 36.0985 161.193 36.0444 161.493 35.9361C161.793 35.8278 162.034 35.6613 162.217 35.4364C162.401 35.2198 162.546 34.9367 162.655 34.5869L163.667 31.9759ZM162.167 19.9828L165.103 29.7771L165.615 33.5874L163.167 33.8498L158.307 19.9828H162.167Z" fill="#E1E1E6"/>
</svg>
